<?xml version="1.0" encoding="UTF-8"?>
<svg id="_图层_1" data-name="图层_1" xmlns="http://www.w3.org/2000/svg" version="1.1" viewBox="0 0 24 24">
  <!-- Generator: Adobe Illustrator 29.6.1, SVG Export Plug-In . SVG Version: 2.1.1 Build 9)  -->
  <defs>
    <style>
      .st0 {
        fill: #545251;
        fill-rule: evenodd;
      }
    </style>
  </defs>
  <path class="st0" d="M1.2,12c0-1.5,1.2-2.8,2.8-2.8s2.8,1.2,2.8,2.8-1.2,2.8-2.8,2.8-2.8-1.2-2.8-2.8ZM4,10.8c-.7,0-1.2.6-1.2,1.2s.6,1.2,1.2,1.2,1.2-.6,1.2-1.2-.6-1.2-1.2-1.2Z"/>
  <path class="st0" d="M19.2,3c0-1,.8-1.8,1.8-1.8s1.8.8,1.8,1.8-.8,1.8-1.8,1.8-1.8-.8-1.8-1.8ZM21,2.8c-.1,0-.2.1-.2.2s.1.2.2.2.2-.1.2-.2-.1-.2-.2-.2Z"/>
  <path class="st0" d="M19.2,12c0-1,.8-1.8,1.8-1.8s1.8.8,1.8,1.8-.8,1.8-1.8,1.8-1.8-.8-1.8-1.8ZM21,11.8c-.1,0-.2.1-.2.2s.1.2.2.2.2-.1.2-.2-.1-.2-.2-.2Z"/>
  <path class="st0" d="M19.2,21c0-1,.8-1.8,1.8-1.8s1.8.8,1.8,1.8-.8,1.8-1.8,1.8-1.8-.8-1.8-1.8ZM21,20.8c-.1,0-.2.1-.2.2s.1.2.2.2.2-.1.2-.2-.1-.2-.2-.2Z"/>
  <path class="st0" d="M9.2,3c0-.4.3-.8.8-.8h6c.4,0,.8.3.8.8s-.3.8-.8.8h-5.2v16.5h5.2c.4,0,.8.3.8.8s-.3.8-.8.8h-6c-.4,0-.8-.3-.8-.8V3Z"/>
  <path class="st0" d="M5.2,12c0-.4.3-.8.8-.8h10c.4,0,.8.3.8.8s-.3.8-.8.8H6c-.4,0-.8-.3-.8-.8Z"/>
</svg>